<svg xmlns="http://www.w3.org/2000/svg" width="30.342" height="30" viewBox="0 0 30.342 30">
  <g id="ecosystem-svgrepo-com" transform="translate(-0.5 -0.629)">
    <path id="Caminho_34374" data-name="Caminho 34374" d="M21.739,14.771a5.34,5.34,0,0,0-1.072-3.216l2.69-2.67a4.491,4.491,0,0,0,1.659.344,3.924,3.924,0,0,0,4.046-3.8,4.046,4.046,0,0,0-8.091,0,3.56,3.56,0,0,0,.485,1.78L18.766,9.9a6.352,6.352,0,0,0-3.095-.809,6.068,6.068,0,0,0-5.927,4.43h-1.4a4.046,4.046,0,0,0-3.8-2.528A3.924,3.924,0,0,0,.5,14.771a3.924,3.924,0,0,0,4.046,3.8,4.046,4.046,0,0,0,3.8-2.528h1.4a6.068,6.068,0,0,0,5.927,4.43,5.886,5.886,0,0,0,6.068-5.7Zm3.277-10.6a1.4,1.4,0,0,1,1.517,1.254,1.537,1.537,0,0,1-3.034,0,1.416,1.416,0,0,1,1.517-1.254ZM4.546,16.045a1.416,1.416,0,0,1-1.517-1.274,1.416,1.416,0,0,1,1.517-1.254,1.416,1.416,0,0,1,1.517,1.254,1.416,1.416,0,0,1-1.517,1.274Zm11.125,1.9a3.378,3.378,0,0,1-3.54-3.176,3.358,3.358,0,0,1,3.54-3.156,3.378,3.378,0,0,1,3.54,3.156A3.4,3.4,0,0,1,15.671,17.946Z" transform="translate(0 0.768)" fill="#06f"/>
    <path id="Caminho_34375" data-name="Caminho 34375" d="M4.546,8.216A4.046,4.046,0,0,0,6.2,7.873l3.56,3.621a7.545,7.545,0,0,1,1.861-1.76l-3.52-3.54a3.56,3.56,0,0,0,.485-1.78A3.924,3.924,0,0,0,4.546.631,3.924,3.924,0,0,0,.5,4.414a3.924,3.924,0,0,0,4.046,3.8Zm0-5.057A1.416,1.416,0,0,1,6.063,4.414,1.416,1.416,0,0,1,4.546,5.688,1.416,1.416,0,0,1,3.028,4.414,1.416,1.416,0,0,1,4.546,3.159ZM26.8,22.881a4.046,4.046,0,0,0-1.659.344l-3.56-3.641a7.545,7.545,0,0,1-1.881,1.7l3.52,3.52a3.54,3.54,0,0,0-.465,1.78,4.046,4.046,0,0,0,8.091,0A3.924,3.924,0,0,0,26.8,22.881Zm0,5.057a1.416,1.416,0,0,1-1.517-1.274,1.537,1.537,0,0,1,3.034,0A1.416,1.416,0,0,1,26.8,27.938Z" transform="translate(0 0)" fill="#06f"/>
  </g>
</svg>
