<svg width="24" height="30" viewBox="0 0 24 30" fill="none" xmlns="http://www.w3.org/2000/svg">
<g clip-path="url(#clip0_181_12414)">
<mask id="mask0_181_12414" style="mask-type:luminance" maskUnits="userSpaceOnUse" x="0" y="16" width="13" height="14">
<path d="M6.54537 17.4546L4.909 19.091H2.72718V21.2728L1.09082 22.9091L2.72718 24.5455V26.7273H4.909L6.54537 28.3637L8.18173 26.7273H10.3635V24.5455L11.9999 22.9091L10.3635 21.2728V19.091H8.18173L6.54537 17.4546Z" fill="white" stroke="white" stroke-width="2" stroke-linejoin="round"/>
<path d="M6.54554 24.5457C6.97953 24.5457 7.39575 24.3733 7.70263 24.0664C8.00951 23.7595 8.18191 23.3433 8.18191 22.9093C8.18191 22.4753 8.00951 22.0591 7.70263 21.7522C7.39575 21.4454 6.97953 21.2729 6.54554 21.2729C6.11155 21.2729 5.69534 21.4454 5.38846 21.7522C5.08158 22.0591 4.90918 22.4753 4.90918 22.9093C4.90918 23.3433 5.08158 23.7595 5.38846 24.0664C5.69534 24.3733 6.11155 24.5457 6.54554 24.5457Z" fill="black" stroke="black" stroke-width="2" stroke-linejoin="round"/>
</mask>
<g mask="url(#mask0_181_12414)">
<path d="M0 16.3638H13.0909V29.4547H0V16.3638Z" fill="#1070FF"/>
</g>
</g>
<path d="M17.4545 1.63623C18.6599 1.63623 19.6363 2.61259 19.6363 3.81805C19.6363 5.0235 18.6599 5.99987 17.4545 5.99987C16.249 5.99987 15.2726 5.0235 15.2726 3.81805C15.2726 2.61259 16.249 1.63623 17.4545 1.63623ZM19.6363 7.38532C19.6363 7.9635 19.4835 9.31078 18.4417 10.8162L17.9999 8.18169L18.5126 7.15623C18.1745 7.11805 17.8199 7.09078 17.4545 7.09078C17.089 7.09078 16.7345 7.11805 16.3963 7.15623L16.909 8.18169L16.4672 10.8162C15.4254 9.31078 15.2726 7.9635 15.2726 7.38532C13.969 7.76714 13.0908 8.45441 13.0908 9.27259V11.4544H21.8181V9.27259C21.8181 8.45441 20.9454 7.76714 19.6363 7.38532Z" fill="#1070FF"/>
<path d="M3.4423 16.4212C3.62458 16.6286 3.9405 16.649 4.14794 16.4667L7.52831 13.4964C7.73575 13.3141 7.75614 12.9982 7.57387 12.7907C7.39159 12.5833 7.07567 12.5629 6.86823 12.7452L3.86345 15.3855L1.22313 12.3807C1.04085 12.1733 0.724926 12.1529 0.51749 12.3352C0.310053 12.5174 0.289657 12.8334 0.471933 13.0408L3.4423 16.4212ZM10.7877 5.51525C7.29679 6.38796 5.43103 9.07847 4.44664 11.4689C3.95285 12.668 3.67185 13.8108 3.51402 14.6524C3.43497 15.0739 3.38646 15.4218 3.35759 15.666C3.34316 15.7881 3.33362 15.8844 3.32763 15.9511C3.32463 15.9844 3.32252 16.0104 3.32113 16.0285C3.32044 16.0376 3.31992 16.0447 3.31956 16.0498C3.31938 16.0523 3.31924 16.0544 3.31914 16.0559C3.31909 16.0567 3.31904 16.0573 3.31901 16.0578C3.31899 16.0581 3.31898 16.0583 3.31897 16.0585C3.31895 16.0587 3.31894 16.0589 3.8179 16.0911C4.31686 16.1234 4.31685 16.1235 4.31684 16.1236C4.31684 16.1236 4.31684 16.1237 4.31684 16.1237C4.31684 16.1237 4.31685 16.1236 4.31686 16.1233C4.3169 16.1228 4.31697 16.1217 4.31708 16.1202C4.31729 16.1172 4.31766 16.1121 4.3182 16.1051C4.31927 16.0912 4.32102 16.0695 4.32362 16.0405C4.32882 15.9826 4.33741 15.8956 4.35068 15.7834C4.37723 15.5587 4.4225 15.2334 4.49689 14.8367C4.64594 14.0419 4.91048 12.9688 5.3713 11.8497C6.29614 9.60385 7.97592 7.24895 11.0303 6.4854L10.7877 5.51525Z" fill="#1070FF"/>
<path d="M20.9104 14.9613C20.7385 14.7452 20.424 14.7093 20.2078 14.8812L16.6857 17.682C16.4696 17.8539 16.4337 18.1684 16.6056 18.3845C16.7774 18.6007 17.092 18.6366 17.3081 18.4647L20.4389 15.9751L22.9285 19.1059C23.1004 19.322 23.4149 19.3579 23.6311 19.186C23.8472 19.0141 23.8831 18.6996 23.7112 18.4834L20.9104 14.9613ZM13.0384 25.4935C16.568 24.7932 18.5636 22.1975 19.6641 19.8583C20.2162 18.6849 20.5529 17.5573 20.7519 16.7245C20.8516 16.3073 20.9171 15.9622 20.9579 15.7198C20.9783 15.5985 20.9926 15.5028 21.0018 15.4365C21.0065 15.4033 21.0098 15.3775 21.0121 15.3594C21.0133 15.3504 21.0141 15.3433 21.0147 15.3383C21.015 15.3358 21.0153 15.3337 21.0155 15.3322C21.0156 15.3314 21.0156 15.3308 21.0157 15.3303C21.0157 15.3301 21.0157 15.3298 21.0158 15.3297C21.0158 15.3294 21.0158 15.3292 20.519 15.2725C20.0223 15.2159 20.0223 15.2157 20.0223 15.2156C20.0223 15.2156 20.0223 15.2155 20.0223 15.2155C20.0223 15.2155 20.0223 15.2156 20.0222 15.2159C20.0222 15.2164 20.0221 15.2175 20.0219 15.219C20.0215 15.222 20.0209 15.227 20.02 15.234C20.0183 15.2479 20.0155 15.2695 20.0114 15.2983C20.0034 15.3559 19.9906 15.4423 19.9718 15.5538C19.9342 15.7768 19.873 16.0996 19.7793 16.4921C19.5914 17.2786 19.2745 18.3375 18.7593 19.4326C17.7253 21.6303 15.9319 23.8999 12.8438 24.5126L13.0384 25.4935Z" fill="#1070FF"/>
<defs>
<clipPath id="clip0_181_12414">
<rect width="13.0909" height="13.0909" fill="white" transform="translate(0 16.3638)"/>
</clipPath>
</defs>
</svg>
