<svg xmlns="http://www.w3.org/2000/svg" width="23.544" height="29.431" viewBox="0 0 23.544 29.431">
  <path id="invoice-paper-svgrepo-com" d="M24.6,2H6.943A2.943,2.943,0,0,0,4,4.943V31.431l4.415-4.415,2.943,4.415,4.415-4.415,4.415,4.415,2.943-4.415,4.415,4.415V4.943A2.943,2.943,0,0,0,24.6,2ZM15.772,22.6H9.886a1.472,1.472,0,1,1,0-2.943h5.886a1.472,1.472,0,0,1,0,2.943Zm0-5.886H9.886a1.472,1.472,0,0,1,0-2.943h5.886a1.472,1.472,0,0,1,0,2.943ZM21.658,22.6H20.187a1.472,1.472,0,0,1,0-2.943h1.472a1.472,1.472,0,1,1,0,2.943Zm0-5.886H20.187a1.472,1.472,0,0,1,0-2.943h1.472a1.472,1.472,0,0,1,0,2.943Zm0-7.358H9.886a1.472,1.472,0,0,1,0-2.943H21.658a1.472,1.472,0,0,1,0,2.943Z" transform="translate(-4 -2)" fill="#06f"/>
</svg>
