<svg xmlns="http://www.w3.org/2000/svg" width="32.379" height="34.625" viewBox="0 0 32.379 34.625">
  <g id="management-svgrepo-com" transform="translate(-9.63)">
    <path id="Caminho_34368" data-name="Caminho 34368" d="M21.638,139.471l.8-.463a.684.684,0,0,0,.25-.934l-1.52-2.632a.683.683,0,0,0-.934-.25l-.8.463a.682.682,0,0,1-1.025-.592v-.926a.684.684,0,0,0-.684-.684h-3.04a.684.684,0,0,0-.684.684v.926a.682.682,0,0,1-1.025.592l-.8-.463a.683.683,0,0,0-.934.25l-1.52,2.632a.684.684,0,0,0,.25.934l.8.463a.684.684,0,0,1,0,1.184l-.8.463a.684.684,0,0,0-.25.934l1.52,2.632a.683.683,0,0,0,.934.25l.8-.463a.682.682,0,0,1,1.025.592v.926a.684.684,0,0,0,.684.684h3.04a.684.684,0,0,0,.684-.684v-.926a.682.682,0,0,1,1.025-.592l.8.463a.683.683,0,0,0,.934-.25l1.52-2.632a.684.684,0,0,0-.25-.934l-.8-.463A.684.684,0,0,1,21.638,139.471Zm-5.432,2.62a2.028,2.028,0,1,1,2.028-2.028,2.028,2.028,0,0,1-2.028,2.028Z" transform="translate(0 -117.895)" fill="#06f"/>
    <path id="Caminho_34369" data-name="Caminho 34369" d="M22.123,21.576A.939.939,0,0,0,20.8,22.9l1.678,1.677a12.384,12.384,0,0,0-11.7,11.251l.139-.24a2.236,2.236,0,0,1,1.932-1.115l.05,0a10.507,10.507,0,0,1,9.538-8.013L20.8,28.105a.939.939,0,0,0,1.328,1.328l3.265-3.265a.939.939,0,0,0,0-1.328Z" transform="translate(-1.012 -18.818)" fill="#06f"/>
    <path id="Caminho_34370" data-name="Caminho 34370" d="M181.22,7.561a3.781,3.781,0,1,0-3.781-3.781A3.785,3.785,0,0,0,181.22,7.561Z" transform="translate(-148.246)" fill="#06f"/>
    <path id="Caminho_34371" data-name="Caminho 34371" d="M161.416,86.293V81.1a3.327,3.327,0,0,0-2.292-3.162l-.006,0-2-.331a.335.335,0,0,0-.413.206l-2.269,6.225a.41.41,0,0,1-.77,0L151.4,77.807a.335.335,0,0,0-.315-.221c-.033,0-2.1.346-2.1.346a3.35,3.35,0,0,0-2.3,3.182v5.18A1.405,1.405,0,0,0,148.09,87.7H160.01A1.406,1.406,0,0,0,161.416,86.293Z" transform="translate(-121.077 -68.541)" fill="#06f"/>
    <path id="Caminho_34372" data-name="Caminho 34372" d="M174.187,162.933a2.02,2.02,0,0,1-2.034,1.81,10.506,10.506,0,0,1-9.674,8.655l1.639-1.639a.939.939,0,0,0-1.328-1.328l-3.265,3.265a.939.939,0,0,0,0,1.328l3.265,3.265a.939.939,0,0,0,1.328-1.328l-1.677-1.678A12.381,12.381,0,0,0,174.187,162.933Z" transform="translate(-132.178 -143.938)" fill="#06f"/>
    <path id="Caminho_34373" data-name="Caminho 34373" d="M203.55,76.024a.464.464,0,0,0-.343-.143h-.961a.464.464,0,0,0-.343.143.446.446,0,0,0-.059.525l.514.775-.241,2.029.474,1.26a.145.145,0,0,0,.272,0l.474-1.26-.241-2.029.514-.775A.446.446,0,0,0,203.55,76.024Z" transform="translate(-169.752 -67.035)" fill="#06f"/>
  </g>
</svg>
