<svg xmlns="http://www.w3.org/2000/svg" width="25.821" height="31" viewBox="0 0 25.821 31">
  <g id="person-svgrepo-com_1_" data-name="person-svgrepo-com (1)" transform="translate(-42.768)">
    <path id="Caminho_26" data-name="Caminho 26" d="M67.918,316.442a12.81,12.81,0,0,0-6.079-5.657,10.74,10.74,0,0,1-12.322,0,12.806,12.806,0,0,0-6.079,5.657c-1.52,2.7-.328,6.526,2.3,6.526H65.618C68.247,322.968,69.439,319.144,67.918,316.442Z" transform="translate(0 -291.968)" fill="#66baff"/>
    <path id="Caminho_27" data-name="Caminho 27" d="M129.882,18.2a8.127,8.127,0,0,0,8.127-8.128V8.128a8.128,8.128,0,0,0-16.256,0v1.947A8.128,8.128,0,0,0,129.882,18.2Z" transform="translate(-74.203)" fill="#66baff"/>
  </g>
</svg>
