<svg id="target-arrow-svgrepo-com" xmlns="http://www.w3.org/2000/svg" width="27.449" height="27.449" viewBox="0 0 27.449 27.449">
  <path id="Caminho_34379" data-name="Caminho 34379" d="M14.015,3.435q-.145,0-.29,0A10.293,10.293,0,1,0,24.018,13.725q0-.146,0-.29L27.045,10.4a13.709,13.709,0,1,1-10-10Z" fill="#06f"/>
  <path id="Caminho_34380" data-name="Caminho 34380" d="M4,10.772A6.865,6.865,0,0,1,9.147,4.126V7.8a3.432,3.432,0,1,0,4.688,4.688h3.674A6.863,6.863,0,0,1,4,10.772Z" transform="translate(2.862 2.952)" fill="#06f"/>
  <path id="Caminho_34381" data-name="Caminho 34381" d="M18.442,3.431,16.726,0,11.579,5.147V7.867L7.793,11.654l2.426,2.426,3.786-3.786h2.721l5.147-5.147Z" transform="translate(5.576)" fill="#06f"/>
</svg>
