<svg width="326" height="325" viewBox="0 0 326 325" fill="none" xmlns="http://www.w3.org/2000/svg">
<path d="M295.823 69.4516C244.491 -3.79077 143.142 -21.616 69.8998 29.7163C-3.34256 81.0485 -21.1714 182.398 30.162 255.642C81.4954 328.886 182.845 346.712 256.09 295.378C329.335 244.044 347.155 142.693 295.823 69.4516ZM71.2537 226.842C58.5367 208.698 51.4858 187.19 50.9927 165.038C50.4996 142.886 56.5863 121.085 68.4833 102.393C80.3803 83.7 97.5531 68.9551 117.83 60.0224C138.107 51.0897 160.578 48.3705 182.4 52.2087C204.222 56.0468 224.417 66.2698 240.429 81.585C256.441 96.9002 267.552 116.62 272.358 138.25C277.163 159.88 275.446 182.449 267.424 203.103C259.402 223.758 245.435 241.569 227.291 254.286C202.949 271.305 172.85 277.973 143.598 272.828C114.345 267.683 88.3281 251.145 71.2537 226.842Z" fill="url(#paint0_linear_1_208)"/>
<defs>
<linearGradient id="paint0_linear_1_208" x1="295.824" y1="69.4528" x2="30.1629" y2="255.643" gradientUnits="userSpaceOnUse">
<stop stop-color="#D8D8D8"/>
<stop offset="1" stop-color="#D8D8D8" stop-opacity="0"/>
</linearGradient>
</defs>
</svg>
