<svg width="326" height="326" viewBox="0 0 326 326" fill="none" xmlns="http://www.w3.org/2000/svg">
<path d="M295.823 69.8324C244.491 -3.40991 143.142 -21.2351 69.8998 30.0971C-3.34256 81.4294 -21.1714 182.779 30.162 256.023C81.4954 329.267 182.845 347.093 256.09 295.759C329.335 244.425 347.155 143.074 295.823 69.8324ZM71.2537 227.223C58.5367 209.079 51.4858 187.57 50.9927 165.419C50.4996 143.267 56.5863 121.466 68.4833 102.773C80.3803 84.0808 97.5531 69.3359 117.83 60.4033C138.107 51.4706 160.578 48.7514 182.4 52.5895C204.222 56.4276 224.417 66.6507 240.429 81.9659C256.441 97.2811 267.552 117.001 272.358 138.631C277.163 160.261 275.446 182.83 267.424 203.484C259.402 224.139 245.435 241.95 227.291 254.667C202.949 271.685 172.85 278.354 143.598 273.209C114.345 268.064 88.3281 251.526 71.2537 227.223Z" fill="url(#paint0_linear_1_34277)"/>
<defs>
<linearGradient id="paint0_linear_1_34277" x1="295.824" y1="69.8337" x2="30.1629" y2="256.024" gradientUnits="userSpaceOnUse">
<stop stop-color="#D8D8D8"/>
<stop offset="1" stop-color="#D8D8D8" stop-opacity="0"/>
</linearGradient>
</defs>
</svg>
